<svg width="44" height="40" viewBox="0 0 44 40" fill="none" xmlns="http://www.w3.org/2000/svg">
<g clip-path="url(#clip0_1_4389)">
<path d="M12.1187 19.6401C12.1187 17.8003 12.5719 16.2272 13.4785 14.9207C14.385 13.6141 15.6249 12.6276 17.198 11.961C18.6379 11.3478 20.411 10.9078 22.5174 10.6412C23.2373 10.5612 24.4105 10.4545 26.037 10.3212V9.64128C26.037 7.93481 25.8503 6.78831 25.477 6.2017C24.9171 5.40179 24.0372 5.00184 22.8374 5.00184H22.5174C21.6375 5.08183 20.8776 5.3618 20.2377 5.84174C19.5978 6.32168 19.1844 6.98828 18.9978 7.8415C18.8912 8.37476 18.6245 8.6814 18.1979 8.76139L13.5985 8.20146C13.1452 8.09479 12.9186 7.85482 12.9186 7.48154C12.9186 7.40155 12.9319 7.30824 12.9586 7.20158C13.4118 4.82854 14.525 3.06875 16.2982 1.92221C18.0713 0.775669 20.1443 0.135745 22.5174 0.00244141H23.5173C26.5569 0.00244141 28.93 0.789027 30.6364 2.36216C30.9041 2.63001 31.1514 2.91744 31.3763 3.22206C31.603 3.5287 31.7829 3.80199 31.9163 4.04196C32.0496 4.28193 32.1696 4.62857 32.2762 5.08183C32.3829 5.5351 32.4629 5.84842 32.5162 6.02172C32.5695 6.19502 32.6095 6.56833 32.6362 7.14158C32.6628 7.71484 32.6762 8.0548 32.6762 8.16146V17.8403C32.6762 18.5335 32.7762 19.1668 32.9762 19.7401C33.1761 20.3133 33.3694 20.7266 33.5561 20.9799C33.7427 21.2332 34.0493 21.6398 34.476 22.1998C34.636 22.4397 34.7159 22.653 34.7159 22.8397C34.7159 23.053 34.6093 23.2397 34.396 23.3996C32.1829 25.3194 30.983 26.3593 30.7964 26.5193C30.4764 26.7592 30.0898 26.7859 29.6366 26.5993C29.2632 26.2793 28.9366 25.9726 28.6567 25.6794C28.3767 25.3861 28.1767 25.1727 28.0567 25.0394C27.9368 24.9061 27.7434 24.6462 27.4768 24.2595C27.2102 23.8729 27.0235 23.6129 26.9169 23.4796C25.4237 25.1061 23.9572 26.1193 22.5174 26.5193C21.6108 26.7859 20.491 26.9192 19.1578 26.9192C17.1047 26.9192 15.4183 26.286 14.0984 25.0194C12.7786 23.7529 12.1187 21.9598 12.1187 19.6401ZM18.9978 18.8402C18.9978 19.8801 19.2578 20.7133 19.7777 21.3399C20.2977 21.9665 20.9976 22.2798 21.8775 22.2798C21.9575 22.2798 22.0708 22.2664 22.2174 22.2398C22.3641 22.2131 22.4641 22.1998 22.5174 22.1998C23.6373 21.9065 24.5038 21.1866 25.1171 20.04C25.4104 19.5334 25.6304 18.9802 25.777 18.3802C25.9236 17.7803 26.0036 17.2937 26.017 16.9204C26.0303 16.5471 26.037 15.9338 26.037 15.0806V14.0808C24.4905 14.0808 23.3173 14.1874 22.5174 14.4007C20.171 15.0673 18.9978 16.5471 18.9978 18.8402Z" fill="#FB68C0"/>
<path d="M0.719914 30.9986C0.426589 30.812 0.213294 30.8253 0.0799904 31.0386C0.0266368 31.1186 0 31.1986 0 31.2786C0 31.4119 0.0799904 31.5452 0.239971 31.6785C3.17294 34.3182 6.49254 36.3646 10.1988 37.8178C13.905 39.2709 17.8379 39.9975 21.9974 39.9975C24.6904 39.9975 27.45 39.6243 30.2764 38.8777C33.1027 38.1311 35.6624 37.0779 37.9554 35.718C38.702 35.2648 39.3153 34.8648 39.7952 34.5182C40.1685 34.2515 40.2418 33.9583 40.0152 33.6383C39.7885 33.3183 39.4753 33.2383 39.0753 33.3983C38.9686 33.4516 38.7887 33.5316 38.5354 33.6383C38.282 33.745 38.0887 33.825 37.9554 33.8783C32.8627 35.8247 27.7033 36.7979 22.4773 36.7979C14.6382 36.7979 7.38575 34.8648 0.719914 30.9986Z" fill="#FF9900"/>
<path d="M36.0357 31.3986C35.929 31.5052 35.849 31.6119 35.7957 31.7185C35.769 31.7718 35.7557 31.8118 35.7557 31.8385C35.729 31.8918 35.7424 31.9452 35.7957 31.9985C35.849 32.0518 35.9557 32.0785 36.1157 32.0785C36.6756 31.9985 37.2888 31.9185 37.9554 31.8385C38.5687 31.7852 39.1019 31.7585 39.5553 31.7585C40.7817 31.7585 41.5283 31.9185 41.795 32.2385C41.9016 32.3718 41.955 32.5851 41.955 32.8784C41.955 33.785 41.4617 35.3981 40.4751 37.7178C40.3952 37.9311 40.4351 38.0778 40.5951 38.1578C40.6484 38.1844 40.7018 38.1977 40.7551 38.1977C40.8617 38.1977 40.9817 38.1444 41.1151 38.0378C42.0216 37.2645 42.7282 36.2447 43.2348 34.9781C43.7414 33.7116 43.9947 32.6117 43.9947 31.6785V31.3986C43.9947 31.0786 43.9414 30.8386 43.8347 30.6786C43.5948 30.3854 42.8749 30.1854 41.675 30.0787C41.435 30.0254 41.1817 30.012 40.9151 30.0387C39.9552 30.0654 38.9686 30.212 37.9554 30.4787C37.3422 30.6387 36.7022 30.9453 36.0357 31.3986Z" fill="#FF9900"/>
</g>
<defs>
<clipPath id="clip0_1_4389">
<rect width="43.9947" height="40" fill="white"/>
</clipPath>
</defs>
</svg>
