<svg width="50" height="50" viewBox="0 0 50 50" fill="none" xmlns="http://www.w3.org/2000/svg">
<path d="M27.43 31.8201C27.24 31.8201 27.05 31.7501 26.9 31.6001C26.61 31.3101 26.61 30.8301 26.9 30.5401L32.44 25.0001L26.9 19.4601C26.61 19.1701 26.61 18.6901 26.9 18.4001C27.19 18.1101 27.67 18.1101 27.96 18.4001L34.03 24.4701C34.32 24.7601 34.32 25.2401 34.03 25.5301L27.96 31.6001C27.81 31.7501 27.62 31.8201 27.43 31.8201Z" fill="#514EF3"/>
<path d="M33.33 25.7501H16.5C16.09 25.7501 15.75 25.4101 15.75 25.0001C15.75 24.5901 16.09 24.2501 16.5 24.2501H33.33C33.74 24.2501 34.08 24.5901 34.08 25.0001C34.08 25.4101 33.74 25.7501 33.33 25.7501Z" fill="#514EF3"/>
</svg>
