<svg width="32" height="24" viewBox="0 0 32 24" fill="none" xmlns="http://www.w3.org/2000/svg">
<g opacity="0.6" clip-path="url(#clip0_1_4235)">
<path d="M7.20269 11.9996H7.21573H7.20269ZM16.3256 11.9996H16.3387H16.3256ZM25.4486 11.9996H25.4616H25.4486ZM8.50597 11.9996C8.50597 12.2504 8.36866 12.491 8.12425 12.6683C7.87984 12.8457 7.54834 12.9453 7.20269 12.9453C6.85704 12.9453 6.52555 12.8457 6.28114 12.6683C6.03672 12.491 5.89941 12.2504 5.89941 11.9996C5.89941 11.7488 6.03672 11.5082 6.28114 11.3308C6.52555 11.1535 6.85704 11.0538 7.20269 11.0538C7.54834 11.0538 7.87984 11.1535 8.12425 11.3308C8.36866 11.5082 8.50597 11.7488 8.50597 11.9996ZM17.6289 11.9996C17.6289 12.2504 17.4916 12.491 17.2472 12.6683C17.0028 12.8457 16.6713 12.9453 16.3256 12.9453C15.98 12.9453 15.6485 12.8457 15.4041 12.6683C15.1597 12.491 15.0224 12.2504 15.0224 11.9996C15.0224 11.7488 15.1597 11.5082 15.4041 11.3308C15.6485 11.1535 15.98 11.0538 16.3256 11.0538C16.6713 11.0538 17.0028 11.1535 17.2472 11.3308C17.4916 11.5082 17.6289 11.7488 17.6289 11.9996ZM26.7519 11.9996C26.7519 12.2504 26.6146 12.491 26.3702 12.6683C26.1257 12.8457 25.7942 12.9453 25.4486 12.9453C25.1029 12.9453 24.7714 12.8457 24.527 12.6683C24.2826 12.491 24.1453 12.2504 24.1453 11.9996C24.1453 11.7488 24.2826 11.5082 24.527 11.3308C24.7714 11.1535 25.1029 11.0538 25.4486 11.0538C25.7942 11.0538 26.1257 11.1535 26.3702 11.3308C26.6146 11.5082 26.7519 11.7488 26.7519 11.9996Z" stroke="#1E2029" stroke-width="2" stroke-linecap="round" stroke-linejoin="round"/>
</g>
<defs>
<clipPath id="clip0_1_4235">
<rect width="22.6977" height="31.2787" fill="white" transform="matrix(0 -1 1 0 0.686279 23.3486)"/>
</clipPath>
</defs>
</svg>
