<svg width="33" height="24" viewBox="0 0 33 24" fill="none" xmlns="http://www.w3.org/2000/svg">
<g opacity="0.6">
<g clip-path="url(#clip0_1_4250)">
<rect x="0.825684" y="23.3486" width="22.6977" height="31.2787" rx="11.3488" transform="rotate(-90 0.825684 23.3486)" fill="white"/>
<path d="M7.3421 11.9996H7.35513H7.3421ZM16.465 11.9996H16.4781H16.465ZM25.588 11.9996H25.601H25.588ZM8.64538 11.9996C8.64538 12.2504 8.50807 12.491 8.26365 12.6683C8.01924 12.8457 7.68775 12.9453 7.3421 12.9453C6.99645 12.9453 6.66495 12.8457 6.42054 12.6683C6.17613 12.491 6.03882 12.2504 6.03882 11.9996C6.03882 11.7488 6.17613 11.5082 6.42054 11.3308C6.66495 11.1535 6.99645 11.0538 7.3421 11.0538C7.68775 11.0538 8.01924 11.1535 8.26365 11.3308C8.50807 11.5082 8.64538 11.7488 8.64538 11.9996ZM17.7683 11.9996C17.7683 12.2504 17.631 12.491 17.3866 12.6683C17.1422 12.8457 16.8107 12.9453 16.465 12.9453C16.1194 12.9453 15.7879 12.8457 15.5435 12.6683C15.2991 12.491 15.1618 12.2504 15.1618 11.9996C15.1618 11.7488 15.2991 11.5082 15.5435 11.3308C15.7879 11.1535 16.1194 11.0538 16.465 11.0538C16.8107 11.0538 17.1422 11.1535 17.3866 11.3308C17.631 11.5082 17.7683 11.7488 17.7683 11.9996ZM26.8913 11.9996C26.8913 12.2504 26.754 12.491 26.5096 12.6683C26.2651 12.8457 25.9336 12.9453 25.588 12.9453C25.2423 12.9453 24.9109 12.8457 24.6664 12.6683C24.422 12.491 24.2847 12.2504 24.2847 11.9996C24.2847 11.7488 24.422 11.5082 24.6664 11.3308C24.9109 11.1535 25.2423 11.0538 25.588 11.0538C25.9336 11.0538 26.2651 11.1535 26.5096 11.3308C26.754 11.5082 26.8913 11.7488 26.8913 11.9996Z" stroke="#1E2029" stroke-width="2" stroke-linecap="round" stroke-linejoin="round"/>
</g>
</g>
<defs>
<clipPath id="clip0_1_4250">
<rect x="0.825684" y="23.3486" width="22.6977" height="31.2787" rx="11.3488" transform="rotate(-90 0.825684 23.3486)" fill="white"/>
</clipPath>
</defs>
</svg>
