<svg width="50" height="50" viewBox="0 0 50 50" fill="none" xmlns="http://www.w3.org/2000/svg">
<path d="M21.0334 16.6665H19.45C17.625 16.6665 16.6667 17.6248 16.6667 19.4415V21.0248C16.6667 22.8415 17.625 23.7998 19.4417 23.7998H21.025C22.8417 23.7998 23.8 22.8415 23.8 21.0248V19.4415C23.8084 17.6248 22.85 16.6665 21.0334 16.6665Z" fill="#7E92A2"/>
<path d="M30.5584 16.6665H28.975C27.1584 16.6665 26.2 17.6248 26.2 19.4415V21.0248C26.2 22.8415 27.1584 23.7998 28.975 23.7998H30.5584C32.375 23.7998 33.3334 22.8415 33.3334 21.0248V19.4415C33.3334 17.6248 32.375 16.6665 30.5584 16.6665Z" fill="#7E92A2"/>
<path d="M30.5584 26.1915H28.975C27.1584 26.1915 26.2 27.1498 26.2 28.9665V30.5498C26.2 32.3665 27.1584 33.3248 28.975 33.3248H30.5584C32.375 33.3248 33.3334 32.3665 33.3334 30.5498V28.9665C33.3334 27.1498 32.375 26.1915 30.5584 26.1915Z" fill="#7E92A2"/>
<path d="M21.0334 26.1915H19.45C17.625 26.1915 16.6667 27.1498 16.6667 28.9665V30.5498C16.6667 32.3748 17.625 33.3332 19.4417 33.3332H21.025C22.8417 33.3332 23.8 32.3748 23.8 30.5582V28.9748C23.8084 27.1498 22.85 26.1915 21.0334 26.1915Z" fill="#7E92A2"/>
</svg>
