<svg width="52" height="52" viewBox="0 0 52 52" fill="none" xmlns="http://www.w3.org/2000/svg">
<rect width="52" height="52" rx="16" fill="#FD6EC4"/>
<path d="M31.9083 26.4917C31.775 26.4917 31.6417 26.45 31.525 26.3583C28.1666 23.7667 23.825 23.7667 20.4667 26.3583C20.1917 26.5667 19.8 26.5167 19.5917 26.25C19.3833 25.975 19.4333 25.5833 19.7 25.375C23.525 22.4167 28.4667 22.4167 32.2833 25.375C32.5583 25.5833 32.6083 25.975 32.3917 26.25C32.2833 26.4083 32.1 26.4917 31.9083 26.4917Z" fill="white"/>
<path d="M34.3333 23.5917C34.2 23.5917 34.0667 23.55 33.95 23.4583C29.1167 19.725 22.875 19.725 18.05 23.4583C17.775 23.6667 17.3833 23.6167 17.175 23.35C16.9583 23.0833 17.0083 22.6833 17.2833 22.475C22.575 18.3833 29.4167 18.3833 34.7167 22.475C34.9917 22.6833 35.0417 23.075 34.825 23.35C34.7083 23.5083 34.5167 23.5917 34.3333 23.5917Z" fill="white"/>
<path d="M30.3417 29.5336C30.2084 29.5336 30.0751 29.4919 29.9584 29.4002C27.5584 27.5419 24.4501 27.5419 22.0417 29.4002C21.7667 29.6086 21.3751 29.5586 21.1667 29.2919C20.9584 29.0169 21.0084 28.6252 21.2751 28.4169C24.1417 26.2002 27.8501 26.2002 30.7167 28.4169C30.9917 28.6252 31.0417 29.0169 30.8251 29.2919C30.7084 29.4502 30.5251 29.5336 30.3417 29.5336Z" fill="white"/>
<path d="M28.1667 32.5836C28.0334 32.5836 27.9 32.5419 27.7834 32.4502C26.7 31.6086 25.2917 31.6086 24.2084 32.4502C23.9334 32.6586 23.5417 32.6086 23.3334 32.3419C23.125 32.0669 23.175 31.6752 23.4417 31.4669C24.9917 30.2669 26.9917 30.2669 28.5417 31.4669C28.8167 31.6752 28.8667 32.0669 28.65 32.3419C28.5417 32.4919 28.3584 32.5836 28.1667 32.5836Z" fill="white"/>
</svg>
