<svg width="26" height="20" viewBox="0 0 26 20" fill="none" xmlns="http://www.w3.org/2000/svg">
<ellipse opacity="0.1" cx="12.8372" cy="10" rx="12.3256" ry="10" fill="#F82E2E"/>
<path fill-rule="evenodd" clip-rule="evenodd" d="M16.7395 9.05943C16.9461 9.06118 17.1412 9.1228 17.2819 9.23076C17.4226 9.33871 17.4974 9.48415 17.4898 9.6351L17.327 12.8553C17.3193 13.0062 17.2299 13.1503 17.0784 13.2558C16.9269 13.3613 16.7258 13.4196 16.5192 13.4179L12.1116 13.3812C11.9075 13.3769 11.7159 13.3141 11.578 13.2065C11.4402 13.0988 11.3672 12.9549 11.3748 12.8056C11.3823 12.6563 11.4698 12.5137 11.6184 12.4085C11.767 12.3032 11.9648 12.2437 12.1692 12.2428L14.6958 12.2639L8.54837 7.54703C8.40765 7.43905 8.33288 7.29358 8.34052 7.1426C8.34815 6.99163 8.43756 6.84752 8.58908 6.74198C8.7406 6.63645 8.94181 6.57813 9.14845 6.57985C9.3551 6.58157 9.55024 6.6432 9.69096 6.75118L15.8384 11.4681L15.9317 9.6221C15.9394 9.47115 16.0288 9.32708 16.1803 9.22156C16.3318 9.11605 16.5329 9.05773 16.7395 9.05943Z" fill="#F82E2E"/>
</svg>
