<svg width="26" height="20" viewBox="0 0 26 20" fill="none" xmlns="http://www.w3.org/2000/svg">
<ellipse opacity="0.1" cx="12.9768" cy="10" rx="12.3256" ry="10" fill="#9664FF"/>
<path fill-rule="evenodd" clip-rule="evenodd" d="M12.7071 6.86599C12.7579 6.71232 12.8818 6.58131 13.0516 6.50176C13.2214 6.42221 13.4232 6.40064 13.6127 6.44179L17.6536 7.32026C17.843 7.36146 18.0045 7.462 18.1025 7.59979C18.2006 7.73757 18.2271 7.90131 18.1764 8.05499L17.0937 11.3335C17.0402 11.4847 16.9157 11.6128 16.7469 11.6903C16.5782 11.7678 16.3787 11.7884 16.1914 11.7477C16.0041 11.7069 15.844 11.6082 15.7455 11.4726C15.6471 11.3371 15.6183 11.1756 15.6652 11.0229L16.2859 9.14354L8.86557 12.6193C8.69571 12.6989 8.49385 12.7205 8.3044 12.6793C8.11495 12.6381 7.95342 12.5375 7.85535 12.3997C7.75728 12.2619 7.73071 12.0981 7.78147 11.9444C7.83223 11.7907 7.95618 11.6597 8.12604 11.5801L15.5464 8.10431L13.2299 7.60073C13.0405 7.55953 12.879 7.45898 12.781 7.3212C12.6829 7.18341 12.6563 7.01968 12.7071 6.86599Z" fill="#9664FF"/>
</svg>
