<svg width="20" height="20" viewBox="0 0 20 20" fill="none" xmlns="http://www.w3.org/2000/svg">
<circle opacity="0.1" cx="10" cy="10" r="10" fill="#9664FF"/>
<path fill-rule="evenodd" clip-rule="evenodd" d="M9.78121 6.86599C9.82241 6.71232 9.92295 6.58131 10.0607 6.50176C10.1985 6.42221 10.3623 6.40064 10.5159 6.44179L13.7944 7.32026C13.9481 7.36146 14.0791 7.462 14.1586 7.59979C14.2382 7.73757 14.2598 7.90131 14.2186 8.05499L13.3401 11.3335C13.2968 11.4847 13.1958 11.6128 13.0588 11.6903C12.9219 11.7678 12.76 11.7884 12.6081 11.7477C12.4561 11.7069 12.3262 11.6082 12.2464 11.4726C12.1665 11.3371 12.1431 11.1756 12.1812 11.0229L12.6848 9.14354L6.66452 12.6193C6.52671 12.6989 6.36294 12.7205 6.20923 12.6793C6.05552 12.6381 5.92447 12.5375 5.84491 12.3997C5.76534 12.2619 5.74378 12.0981 5.78497 11.9444C5.82615 11.7907 5.92671 11.6597 6.06452 11.5801L12.0848 8.10431L10.2054 7.60073C10.0517 7.55953 9.92072 7.45898 9.84117 7.3212C9.76162 7.18341 9.74005 7.01968 9.78121 6.86599Z" fill="#9664FF"/>
</svg>
