<svg width="100" height="100" viewBox="0 0 100 100" fill="none" xmlns="http://www.w3.org/2000/svg">
<rect width="100" height="100" rx="50" fill="url(#paint0_linear_1_1765)"/>
<path d="M43.8751 30.75C38.9626 30.75 34.9688 34.7438 34.9688 39.6562C34.9688 44.475 38.7376 48.375 43.6501 48.5437C43.8001 48.525 43.9501 48.525 44.0626 48.5437C44.1001 48.5437 44.1188 48.5437 44.1563 48.5437C44.1751 48.5437 44.1751 48.5437 44.1938 48.5437C48.9938 48.375 52.7626 44.475 52.7813 39.6562C52.7813 34.7438 48.7876 30.75 43.8751 30.75Z" fill="#2DC8A8"/>
<path d="M53.4001 53.5312C48.1688 50.0437 39.6376 50.0437 34.3688 53.5312C31.9876 55.125 30.6751 57.2812 30.6751 59.5875C30.6751 61.8937 31.9876 64.0312 34.3501 65.6063C36.9751 67.3688 40.4251 68.25 43.8751 68.25C47.3251 68.25 50.7751 67.3688 53.4001 65.6063C55.7626 64.0125 57.0751 61.875 57.0751 59.55C57.0563 57.2438 55.7626 55.1062 53.4001 53.5312Z" fill="#2DC8A8"/>
<path d="M64.4813 40.7625C64.7813 44.4 62.1938 47.5875 58.6126 48.0187C58.5938 48.0187 58.5938 48.0187 58.5751 48.0187H58.5188C58.4063 48.0187 58.2938 48.0187 58.2001 48.0562C56.3813 48.15 54.7126 47.5688 53.4563 46.5C55.3876 44.775 56.4938 42.1875 56.2688 39.375C56.1376 37.8562 55.6126 36.4688 54.8251 35.2875C55.5376 34.9313 56.3626 34.7063 57.2063 34.6313C60.8813 34.3125 64.1626 37.05 64.4813 40.7625Z" fill="#2DC8A8"/>
<path d="M68.2313 58.1063C68.0813 59.925 66.9188 61.5 64.9688 62.5687C63.0938 63.6 60.7313 64.0875 58.3876 64.0312C59.7376 62.8125 60.5251 61.2938 60.6751 59.6813C60.8626 57.3563 59.7563 55.125 57.5438 53.3438C56.2876 52.35 54.8251 51.5625 53.2313 50.9813C57.3751 49.7812 62.5876 50.5875 65.7938 53.175C67.5188 54.5625 68.4001 56.3062 68.2313 58.1063Z" fill="#2DC8A8"/>
<defs>
<linearGradient id="paint0_linear_1_1765" x1="50" y1="0" x2="50" y2="100" gradientUnits="userSpaceOnUse">
<stop stop-color="#2DC8A8" stop-opacity="0.5"/>
<stop offset="1" stop-color="white" stop-opacity="0"/>
</linearGradient>
</defs>
</svg>
