<svg width="100" height="100" viewBox="0 0 100 100" fill="none" xmlns="http://www.w3.org/2000/svg">
<rect width="100" height="100" rx="50" fill="url(#paint0_linear_1_1771)"/>
<path d="M66.5438 40.0876C64.95 38.3251 62.2875 37.4438 58.425 37.4438H57.975V37.3688C57.975 34.2188 57.975 30.3188 50.925 30.3188H48.075C41.025 30.3188 41.025 34.2376 41.025 37.3688V37.4626H40.575C36.6938 37.4626 34.05 38.3438 32.4563 40.1063C30.6 42.1688 30.6563 44.9438 30.8438 46.8376L30.8625 46.9688L31.0077 48.4938C31.0345 48.7746 31.1857 49.0282 31.4218 49.1827C31.8714 49.4769 32.6239 49.962 33.075 50.2126C33.3375 50.3813 33.6188 50.5313 33.9 50.6813C37.1063 52.4438 40.6313 53.6251 44.2125 54.2063C44.3813 55.9688 45.15 58.0313 49.2563 58.0313C53.3625 58.0313 54.1688 55.9876 54.3 54.1688C58.125 53.5501 61.8188 52.2188 65.1563 50.2688C65.2688 50.2126 65.3438 50.1563 65.4375 50.1001C66.1814 49.6797 66.9531 49.1616 67.6565 48.6542C67.8684 48.5013 68.0039 48.2649 68.0328 48.0052L68.0625 47.7376L68.1563 46.8563C68.175 46.7438 68.175 46.6501 68.1938 46.5188C68.3438 44.6251 68.3063 42.0376 66.5438 40.0876ZM51.5438 52.9313C51.5438 54.9188 51.5438 55.2188 49.2375 55.2188C46.9313 55.2188 46.9313 54.8626 46.9313 52.9501V50.5876H51.5438V52.9313ZM43.7063 37.3688C43.7063 34.1813 43.7063 33.0001 48.075 33.0001H50.925C55.2938 33.0001 55.2938 34.2001 55.2938 37.3688V37.4626H43.7063V37.3688Z" fill="#FE8084"/>
<path d="M66.1378 52.7517C66.8008 52.4362 67.5644 52.9617 67.498 53.6929L66.825 61.1064C66.4313 64.8564 64.8938 68.6813 56.6438 68.6813H42.3563C34.1063 68.6813 32.5688 64.8564 32.175 61.1251L31.5362 54.0979C31.4705 53.3752 32.2166 52.8503 32.8778 53.1494C35.0142 54.116 38.9576 55.8309 41.3936 56.4689C41.7017 56.5495 41.9508 56.77 42.0857 57.0585C43.2238 59.4925 45.6921 60.7876 49.2563 60.7876C52.7852 60.7876 55.2847 59.4426 56.4265 57.0027C56.5616 56.714 56.811 56.4935 57.1193 56.4124C59.7059 55.7318 63.9033 53.8149 66.1378 52.7517Z" fill="#FE8084"/>
<defs>
<linearGradient id="paint0_linear_1_1771" x1="50" y1="0" x2="50" y2="100" gradientUnits="userSpaceOnUse">
<stop stop-color="#FE8084" stop-opacity="0.5"/>
<stop offset="1" stop-color="white" stop-opacity="0"/>
</linearGradient>
</defs>
</svg>
