<svg width="726" height="230" viewBox="0 0 726 230" fill="none" xmlns="http://www.w3.org/2000/svg">
<path d="M625.584 156.223C663.151 144.332 707.166 161.178 724.478 171.086V229.038H0.84198V2.29883C37.197 9.10072 60.5679 65.0274 66.4107 100.548C71.1761 129.519 71.3879 150.177 96.7065 156.223C122.161 162.301 152.339 142.96 177.874 116.76C198.302 95.7998 228.8 108.026 241.496 116.76C264.001 131.959 301.073 142.267 330.85 126.748C368.07 107.35 388.628 112.893 435.586 126.748C482.545 140.604 477.784 149.421 516.952 171.086C556.12 192.752 578.626 171.086 625.584 156.223Z" fill="url(#paint0_linear_1_1838)"/>
<path d="M724.478 171.086C707.166 161.178 663.151 144.332 625.584 156.223C578.626 171.086 556.12 192.752 516.952 171.086C477.784 149.421 482.545 140.604 435.586 126.748C388.628 112.893 368.07 107.35 330.85 126.748C301.073 142.267 264.001 131.959 241.496 116.76C228.8 108.026 198.302 95.7998 177.874 116.76C152.339 142.959 122.161 162.301 96.7065 156.223C71.3879 150.177 71.1761 129.519 66.4107 100.548C60.5679 65.0274 37.1969 9.10072 0.841994 2.29883" stroke="#2D3748" stroke-width="3"/>
<path d="M98.9758 131.63C61.6978 119.748 18.0208 136.581 0.84198 146.483V228.811H723.617V33.9899C687.541 40.7868 656.896 39.0242 651.098 74.5192C646.369 103.469 646.159 124.112 621.035 130.153C595.777 136.227 581.094 100.7 555.756 74.5192C535.485 53.5747 501.345 80.829 488.747 89.5559C466.415 104.744 415.647 71.6058 393.645 45.5567C362.229 8.36149 320.915 4.9595 289.714 45.5567C258.512 86.1539 227.562 52.8698 188.695 74.5192C149.828 96.1686 145.573 146.483 98.9758 131.63Z" fill="url(#paint1_linear_1_1838)"/>
<path d="M0.84198 146.649C18.0208 136.735 61.6978 119.881 98.9758 131.778C145.573 146.649 149.828 96.2707 188.695 74.5937C227.562 52.9166 258.511 86.2432 289.713 45.594C320.915 4.94488 362.229 8.35124 393.645 45.594C415.647 71.6765 466.415 104.857 488.747 89.6496C501.345 80.9115 535.485 53.6223 555.756 74.5937C581.094 100.808 595.777 136.38 621.035 130.299C646.159 124.249 646.369 103.581 651.098 74.5937C656.896 39.0532 687.541 40.8181 723.617 34.0125" stroke="#CB0C9F" stroke-width="3"/>
<defs>
<linearGradient id="paint0_linear_1_1838" x1="362.66" y1="2.29883" x2="362.66" y2="229.038" gradientUnits="userSpaceOnUse">
<stop stop-color="#2D3748" stop-opacity="0.36"/>
<stop offset="1" stop-color="#2D3748" stop-opacity="0"/>
</linearGradient>
<linearGradient id="paint1_linear_1_1838" x1="362.229" y1="16.3706" x2="362.229" y2="228.811" gradientUnits="userSpaceOnUse">
<stop stop-color="#CB0C9F" stop-opacity="0.54"/>
<stop offset="1" stop-color="#CB0C9F" stop-opacity="0"/>
</linearGradient>
</defs>
</svg>
