<svg width="29" height="29" viewBox="0 0 29 29" fill="none" xmlns="http://www.w3.org/2000/svg">
<g clip-path="url(#clip0_1_4366)">
<path d="M0.667034 20.9815L10.295 2.63525C11.518 3.43666 17.6851 7.23541 18.681 7.95789L9.05302 26.3052C8.00007 27.8535 -0.666966 23.3312 0.667034 20.9805V20.9815Z" fill="#FBBC04"/>
<path d="M28.3298 20.9811L18.7018 2.63597C17.3558 0.142723 14.457 -0.763338 12.0759 0.709231C9.69486 2.1818 8.96986 5.3539 10.3159 7.95847L19.9439 26.3059C21.2899 28.798 24.1889 29.7039 26.5699 28.2315C28.8469 26.7588 29.6759 23.4742 28.3298 20.9833V20.9811Z" fill="#4285F4"/>
<path d="M4.83303 28.9407C7.50224 28.9407 9.66606 26.5921 9.66606 23.6949C9.66606 20.7978 7.50224 18.4492 4.83303 18.4492C2.16382 18.4492 0 20.7978 0 23.6949C0 26.5921 2.16382 28.9407 4.83303 28.9407Z" fill="#34A853"/>
</g>
<defs>
<clipPath id="clip0_1_4366">
<rect width="29" height="29" fill="white"/>
</clipPath>
</defs>
</svg>
