<svg width="630" height="173" viewBox="0 0 630 173" fill="none" xmlns="http://www.w3.org/2000/svg">
<mask id="mask0_1_4254" style="mask-type:alpha" maskUnits="userSpaceOnUse" x="0" y="0" width="630" height="173">
<rect x="0.854492" width="628.291" height="173" fill="#D9D9D9"/>
</mask>
<g mask="url(#mask0_1_4254)">
<g filter="url(#filter0_d_1_4254)">
<path fill-rule="evenodd" clip-rule="evenodd" d="M860.418 6.15855L853.813 22.1001C847.207 37.6794 833.997 68.8379 821.386 81.8809C808.176 94.924 794.965 89.8517 781.754 87.3156C768.544 84.4171 755.333 84.4171 742.723 87.3156C729.512 89.8517 716.301 94.924 703.09 92.3879C689.88 89.8517 677.269 79.3448 664.059 79.3448C650.848 79.3448 637.637 89.8517 624.426 94.924C611.216 100.359 598.605 100.359 585.395 94.924C572.184 89.8517 558.973 79.3448 545.762 74.2725C533.152 68.8378 519.941 68.8378 506.731 55.7947C493.52 42.7516 480.309 16.6655 467.098 14.1293C454.488 11.5932 441.277 32.2447 428.067 29.7086C414.856 27.1724 401.645 1.08621 389.035 9.05698C375.824 16.6655 362.613 58.3309 349.403 68.8378C336.192 79.3448 322.981 58.3309 310.371 61.2293C297.16 63.7655 283.95 89.8517 270.739 94.924C257.528 100.359 244.918 84.4171 231.707 68.8378C218.496 53.2586 205.286 37.6793 192.075 40.2155C178.864 42.7516 166.254 63.7655 153.043 55.7947C139.832 48.1862 126.622 11.5931 113.411 14.1293C100.801 16.6654 87.5899 58.3309 74.3792 61.2293C61.1685 63.7655 47.9577 27.1724 34.747 9.05696C22.1367 -9.42075 8.92598 -9.42075 2.32063 -9.42075L-4.28478 -9.42075L-4.28478 -25L2.32063 -25C8.92598 -25 22.1367 -25 34.747 -25C47.9577 -25 61.1685 -25 74.3792 -25C87.5899 -25 100.801 -25 113.411 -25C126.622 -25 139.832 -25 153.043 -25C166.254 -25 178.864 -25 192.075 -25C205.286 -25 218.496 -25 231.707 -25C244.918 -25 257.528 -25 270.739 -25C283.95 -25 297.16 -25 310.371 -25C322.981 -25 336.192 -25 349.403 -25C362.614 -25 375.824 -25 389.035 -25C401.645 -25 414.856 -25 428.067 -25C441.277 -25 454.488 -25 467.098 -25C480.309 -25 493.52 -25 506.731 -25C519.941 -25 533.152 -25 545.762 -25C558.973 -25 572.184 -25 585.395 -25C598.605 -25 611.216 -25 624.426 -25C637.637 -25 650.848 -25 664.059 -25C677.269 -25 689.88 -25 703.09 -24.9999C716.301 -24.9999 729.512 -24.9999 742.723 -24.9999C755.333 -24.9999 768.544 -24.9999 781.754 -24.9999C794.965 -24.9999 808.176 -24.9999 821.386 -24.9999C833.997 -24.9999 847.207 -24.9999 853.813 -24.9999L860.418 -24.9999L860.418 6.15855Z" stroke="#9664FF" stroke-width="4" shape-rendering="crispEdges"/>
</g>
</g>
<defs>
<filter id="filter0_d_1_4254" x="-32.2848" y="-49" width="920.703" height="180" filterUnits="userSpaceOnUse" color-interpolation-filters="sRGB">
<feFlood flood-opacity="0" result="BackgroundImageFix"/>
<feColorMatrix in="SourceAlpha" type="matrix" values="0 0 0 0 0 0 0 0 0 0 0 0 0 0 0 0 0 0 127 0" result="hardAlpha"/>
<feOffset dy="4"/>
<feGaussianBlur stdDeviation="13"/>
<feComposite in2="hardAlpha" operator="out"/>
<feColorMatrix type="matrix" values="0 0 0 0 0.588235 0 0 0 0 0.392157 0 0 0 0 1 0 0 0 0.5 0"/>
<feBlend mode="normal" in2="BackgroundImageFix" result="effect1_dropShadow_1_4254"/>
<feBlend mode="normal" in="SourceGraphic" in2="effect1_dropShadow_1_4254" result="shape"/>
</filter>
</defs>
</svg>
