<svg width="29" height="29" viewBox="0 0 29 29" fill="none" xmlns="http://www.w3.org/2000/svg">
<path d="M6.04163 3.625V25.375H13.2916V21.1458H15.7083V25.375H22.9583V3.625H6.04163ZM8.45829 6.04167H10.875V8.45833H8.45829V6.04167ZM13.2916 6.04167H15.7083V8.45833H13.2916V6.04167ZM18.125 6.04167H20.5416V8.45833H18.125V6.04167ZM8.45829 10.875H10.875V13.2917H8.45829V10.875ZM13.2916 10.875H15.7083V13.2917H13.2916V10.875ZM18.125 10.875H20.5416V13.2917H18.125V10.875ZM8.45829 15.7083H10.875V18.125H8.45829V15.7083ZM13.2916 15.7083H15.7083V18.125H13.2916V15.7083ZM18.125 15.7083H20.5416V18.125H18.125V15.7083ZM8.45829 20.5417H10.875V22.9583H8.45829V20.5417ZM18.125 20.5417H20.5416V22.9583H18.125V20.5417Z" fill="white"/>
</svg>
