<svg width="20" height="20" viewBox="0 0 20 20" fill="none" xmlns="http://www.w3.org/2000/svg">
<path d="M17.1593 10.98C17.1993 10.66 17.2293 10.34 17.2293 10C17.2293 9.66 17.1993 9.34 17.1593 9.02L19.2693 7.37C19.4593 7.22 19.5093 6.95 19.3893 6.73L17.3893 3.27C17.2993 3.11 17.1293 3.02 16.9493 3.02C16.8893 3.02 16.8293 3.03 16.7793 3.05L14.2893 4.05C13.7693 3.65 13.2093 3.32 12.5993 3.07L12.2193 0.42C12.1893 0.18 11.9793 0 11.7293 0H7.72927C7.47927 0 7.26927 0.18 7.23927 0.42L6.85927 3.07C6.24927 3.32 5.68927 3.66 5.16927 4.05L2.67927 3.05C2.61927 3.03 2.55927 3.02 2.49927 3.02C2.32927 3.02 2.15927 3.11 2.06927 3.27L0.0692705 6.73C-0.0607295 6.95 -0.000729337 7.22 0.189271 7.37L2.29927 9.02C2.25927 9.34 2.22927 9.67 2.22927 10C2.22927 10.33 2.25927 10.66 2.29927 10.98L0.189271 12.63C-0.000729337 12.78 -0.0507295 13.05 0.0692705 13.27L2.06927 16.73C2.15927 16.89 2.32927 16.98 2.50927 16.98C2.56927 16.98 2.62927 16.97 2.67927 16.95L5.16927 15.95C5.68927 16.35 6.24927 16.68 6.85927 16.93L7.23927 19.58C7.26927 19.82 7.47927 20 7.72927 20H11.7293C11.9793 20 12.1893 19.82 12.2193 19.58L12.5993 16.93C13.2093 16.68 13.7693 16.34 14.2893 15.95L16.7793 16.95C16.8393 16.97 16.8993 16.98 16.9593 16.98C17.1293 16.98 17.2993 16.89 17.3893 16.73L19.3893 13.27C19.5093 13.05 19.4593 12.78 19.2693 12.63L17.1593 10.98ZM15.1793 9.27C15.2193 9.58 15.2293 9.79 15.2293 10C15.2293 10.21 15.2093 10.43 15.1793 10.73L15.0393 11.86L15.9293 12.56L17.0093 13.4L16.3093 14.61L15.0393 14.1L13.9993 13.68L13.0993 14.36C12.6693 14.68 12.2593 14.92 11.8493 15.09L10.7893 15.52L10.6293 16.65L10.4293 18H9.02927L8.83927 16.65L8.67927 15.52L7.61927 15.09C7.18927 14.91 6.78927 14.68 6.38927 14.38L5.47927 13.68L4.41927 14.11L3.14927 14.62L2.44927 13.41L3.52927 12.57L4.41927 11.87L4.27927 10.74C4.24927 10.43 4.22927 10.2 4.22927 10C4.22927 9.8 4.24927 9.57 4.27927 9.27L4.41927 8.14L3.52927 7.44L2.44927 6.6L3.14927 5.39L4.41927 5.9L5.45927 6.32L6.35927 5.64C6.78927 5.32 7.19927 5.08 7.60927 4.91L8.66927 4.48L8.82927 3.35L9.02927 2H10.4193L10.6093 3.35L10.7693 4.48L11.8293 4.91C12.2593 5.09 12.6593 5.32 13.0593 5.62L13.9693 6.32L15.0293 5.89L16.2993 5.38L16.9993 6.59L15.9293 7.44L15.0393 8.14L15.1793 9.27ZM9.72927 6C7.51927 6 5.72927 7.79 5.72927 10C5.72927 12.21 7.51927 14 9.72927 14C11.9393 14 13.7293 12.21 13.7293 10C13.7293 7.79 11.9393 6 9.72927 6ZM9.72927 12C8.62927 12 7.72927 11.1 7.72927 10C7.72927 8.9 8.62927 8 9.72927 8C10.8293 8 11.7293 8.9 11.7293 10C11.7293 11.1 10.8293 12 9.72927 12Z" fill="#A3AED0"/>
</svg>
