<svg width="6" height="12" viewBox="0 0 6 12" fill="none" xmlns="http://www.w3.org/2000/svg">
<path d="M6 8.7C6 9.62 5.70909 10.4 5.12727 11.04C4.54545 11.68 3.83636 12 3 12C2.16364 12 1.45455 11.68 0.872728 11.04C0.290909 10.4 0 9.62 0 8.7L0 2.4C0 1.74 0.213636 1.175 0.640909 0.704999C1.06818 0.234999 1.58182 0 2.18182 0C2.78182 0 3.29545 0.234999 3.72273 0.704999C4.15 1.175 4.36364 1.74 4.36364 2.4L4.36364 8.1C4.36364 8.52 4.23182 8.875 3.96818 9.165C3.70455 9.455 3.38182 9.6 3 9.6C2.61818 9.6 2.29545 9.455 2.03182 9.165C1.76818 8.875 1.63636 8.52 1.63636 8.1L1.63636 2.4H2.45455L2.45455 8.1C2.45455 8.27 2.50691 8.4126 2.61164 8.5278C2.71636 8.643 2.84582 8.7004 3 8.7C3.15455 8.7 3.28418 8.6424 3.38891 8.5272C3.49364 8.412 3.54582 8.2696 3.54545 8.1L3.54545 2.4C3.54545 1.98 3.41364 1.625 3.15 1.335C2.88636 1.045 2.56364 0.9 2.18182 0.9C1.8 0.9 1.47727 1.045 1.21364 1.335C0.95 1.625 0.818182 1.98 0.818182 2.4L0.818182 8.7C0.818182 9.36 1.03182 9.925 1.45909 10.395C1.88636 10.865 2.4 11.1 3 11.1C3.6 11.1 4.11364 10.865 4.54091 10.395C4.96818 9.925 5.18182 9.36 5.18182 8.7L5.18182 2.4H6L6 8.7Z" fill="#C2C2C2"/>
</svg>
