<svg width="19" height="15" viewBox="0 0 19 15" fill="none" xmlns="http://www.w3.org/2000/svg">
<path d="M2.99994 0H15.9999C16.7956 0 17.5587 0.316071 18.1213 0.87868C18.6839 1.44129 18.9999 2.20435 18.9999 3V12C18.9999 12.7956 18.6839 13.5587 18.1213 14.1213C17.5587 14.6839 16.7956 15 15.9999 15H2.99994C2.20429 15 1.44123 14.6839 0.878619 14.1213C0.31601 13.5587 -6.10352e-05 12.7956 -6.10352e-05 12V3C-6.10352e-05 2.20435 0.31601 1.44129 0.878619 0.87868C1.44123 0.316071 2.20429 0 2.99994 0ZM2.99994 1C2.49994 1 2.05994 1.17 1.71994 1.47L9.49994 6.5L17.2799 1.47C16.9399 1.17 16.4999 1 15.9999 1H2.99994ZM9.49994 7.71L1.12994 2.28C1.04994 2.5 0.999939 2.75 0.999939 3V12C0.999939 12.5304 1.21065 13.0391 1.58573 13.4142C1.9608 13.7893 2.46951 14 2.99994 14H15.9999C16.5304 14 17.0391 13.7893 17.4142 13.4142C17.7892 13.0391 17.9999 12.5304 17.9999 12V3C17.9999 2.75 17.9499 2.5 17.8699 2.28L9.49994 7.71Z" fill="#4523DC"/>
</svg>
