<svg width="27" height="31" viewBox="0 0 27 31" fill="none" xmlns="http://www.w3.org/2000/svg">
<path d="M8 6.90625C7.43625 6.90625 6.96875 6.43875 6.96875 5.875V1.75C6.96875 1.18625 7.43625 0.71875 8 0.71875C8.56375 0.71875 9.03125 1.18625 9.03125 1.75V5.875C9.03125 6.43875 8.56375 6.90625 8 6.90625Z" fill="#514EF3"/>
<path d="M19 6.90625C18.4363 6.90625 17.9688 6.43875 17.9688 5.875V1.75C17.9688 1.18625 18.4363 0.71875 19 0.71875C19.5637 0.71875 20.0312 1.18625 20.0312 1.75V5.875C20.0312 6.43875 19.5637 6.90625 19 6.90625Z" fill="#514EF3"/>
<path d="M8.6875 18.9375C8.50875 18.9375 8.33 18.8963 8.165 18.8275C7.98625 18.7588 7.84875 18.6625 7.71125 18.5387C7.46375 18.2775 7.3125 17.9338 7.3125 17.5625C7.3125 17.3838 7.35375 17.205 7.4225 17.04C7.49125 16.875 7.5875 16.7238 7.71125 16.5863C7.84875 16.4625 7.98625 16.3662 8.165 16.2975C8.66 16.0912 9.27875 16.2013 9.66375 16.5863C9.91125 16.8475 10.0625 17.205 10.0625 17.5625C10.0625 17.645 10.0487 17.7413 10.035 17.8375C10.0212 17.92 9.99375 18.0025 9.9525 18.085C9.925 18.1675 9.88375 18.25 9.82875 18.3325C9.7875 18.4013 9.71875 18.47 9.66375 18.5387C9.4025 18.7862 9.045 18.9375 8.6875 18.9375Z" fill="#514EF3"/>
<path d="M13.5 18.9375C13.3212 18.9375 13.1425 18.8963 12.9775 18.8275C12.7987 18.7588 12.6613 18.6625 12.5238 18.5387C12.2763 18.2775 12.125 17.9337 12.125 17.5625C12.125 17.3837 12.1663 17.205 12.235 17.04C12.3038 16.875 12.4 16.7238 12.5238 16.5863C12.6613 16.4625 12.7987 16.3662 12.9775 16.2975C13.4725 16.0775 14.0912 16.2013 14.4762 16.5863C14.7237 16.8475 14.875 17.205 14.875 17.5625C14.875 17.645 14.8612 17.7413 14.8475 17.8375C14.8337 17.92 14.8062 18.0025 14.765 18.085C14.7375 18.1675 14.6963 18.25 14.6413 18.3325C14.6 18.4012 14.5312 18.47 14.4762 18.5387C14.215 18.7862 13.8575 18.9375 13.5 18.9375Z" fill="#514EF3"/>
<path d="M18.3125 18.9375C18.1338 18.9375 17.955 18.8963 17.79 18.8275C17.6112 18.7588 17.4738 18.6625 17.3363 18.5387C17.2813 18.47 17.2262 18.4012 17.1712 18.3325C17.1162 18.25 17.075 18.1675 17.0475 18.085C17.0063 18.0025 16.9788 17.92 16.965 17.8375C16.9513 17.7413 16.9375 17.645 16.9375 17.5625C16.9375 17.205 17.0888 16.8475 17.3363 16.5863C17.4738 16.4625 17.6112 16.3662 17.79 16.2975C18.2987 16.0775 18.9037 16.2013 19.2887 16.5863C19.5362 16.8475 19.6875 17.205 19.6875 17.5625C19.6875 17.645 19.6737 17.7413 19.66 17.8375C19.6462 17.92 19.6187 18.0025 19.5775 18.085C19.55 18.1675 19.5088 18.25 19.4538 18.3325C19.4125 18.4012 19.3437 18.47 19.2887 18.5387C19.0275 18.7862 18.67 18.9375 18.3125 18.9375Z" fill="#514EF3"/>
<path d="M8.6875 23.75C8.50875 23.75 8.33 23.7088 8.165 23.64C8 23.5713 7.84875 23.475 7.71125 23.3512C7.46375 23.09 7.3125 22.7325 7.3125 22.375C7.3125 22.1963 7.35375 22.0175 7.4225 21.8525C7.49125 21.6737 7.5875 21.5225 7.71125 21.3988C8.22 20.89 9.155 20.89 9.66375 21.3988C9.91125 21.66 10.0625 22.0175 10.0625 22.375C10.0625 22.7325 9.91125 23.09 9.66375 23.3512C9.4025 23.5987 9.045 23.75 8.6875 23.75Z" fill="#514EF3"/>
<path d="M13.5 23.75C13.1425 23.75 12.785 23.5987 12.5238 23.3512C12.2763 23.09 12.125 22.7325 12.125 22.375C12.125 22.1963 12.1663 22.0175 12.235 21.8525C12.3038 21.6737 12.4 21.5225 12.5238 21.3988C13.0325 20.89 13.9675 20.89 14.4762 21.3988C14.6 21.5225 14.6962 21.6737 14.765 21.8525C14.8337 22.0175 14.875 22.1963 14.875 22.375C14.875 22.7325 14.7237 23.09 14.4762 23.3512C14.215 23.5987 13.8575 23.75 13.5 23.75Z" fill="#514EF3"/>
<path d="M18.3125 23.75C17.955 23.75 17.5975 23.5988 17.3363 23.3513C17.2125 23.2275 17.1163 23.0763 17.0475 22.8976C16.9788 22.7326 16.9375 22.5538 16.9375 22.375C16.9375 22.1963 16.9788 22.0175 17.0475 21.8525C17.1163 21.6738 17.2125 21.5226 17.3363 21.3988C17.6525 21.0826 18.1337 20.9313 18.5737 21.0275C18.67 21.0413 18.7525 21.0688 18.835 21.11C18.9175 21.1375 19 21.1788 19.0825 21.2338C19.1513 21.2751 19.22 21.3438 19.2887 21.3988C19.5362 21.6601 19.6875 22.0175 19.6875 22.375C19.6875 22.7325 19.5362 23.09 19.2887 23.3513C19.0275 23.5988 18.67 23.75 18.3125 23.75Z" fill="#514EF3"/>
<path d="M25.1875 12.53H1.8125C1.24875 12.53 0.78125 12.0625 0.78125 11.4987C0.78125 10.935 1.24875 10.4675 1.8125 10.4675H25.1875C25.7512 10.4675 26.2188 10.935 26.2188 11.4987C26.2188 12.0625 25.7512 12.53 25.1875 12.53Z" fill="#514EF3"/>
<path d="M19 30.2812H8C2.98125 30.2812 0.09375 27.3937 0.09375 22.375V10.6875C0.09375 5.66875 2.98125 2.78125 8 2.78125H19C24.0187 2.78125 26.9062 5.66875 26.9062 10.6875V22.375C26.9062 27.3937 24.0187 30.2812 19 30.2812ZM8 4.84375C4.0675 4.84375 2.15625 6.755 2.15625 10.6875V22.375C2.15625 26.3075 4.0675 28.2188 8 28.2188H19C22.9325 28.2188 24.8438 26.3075 24.8438 22.375V10.6875C24.8438 6.755 22.9325 4.84375 19 4.84375H8Z" fill="#514EF3"/>
</svg>
