<svg width="17" height="16" viewBox="0 0 17 16" fill="none" xmlns="http://www.w3.org/2000/svg">
<path d="M8.85417 9.99357C8.7275 9.99357 8.60084 9.94691 8.50084 9.84691L6.79417 8.14024C6.60084 7.94691 6.60084 7.62691 6.79417 7.43357C6.9875 7.24024 7.3075 7.24024 7.50084 7.43357L8.85417 8.78691L10.2075 7.43357C10.4008 7.24024 10.7208 7.24024 10.9142 7.43357C11.1075 7.62691 11.1075 7.94691 10.9142 8.14024L9.2075 9.84691C9.1075 9.94691 8.98084 9.99357 8.85417 9.99357Z" fill="white"/>
<path d="M8.854 9.9465C8.58067 9.9465 8.354 9.71984 8.354 9.4465V2.6665C8.354 2.39317 8.58067 2.1665 8.854 2.1665C9.12734 2.1665 9.354 2.39317 9.354 2.6665V9.4465C9.354 9.71984 9.12734 9.9465 8.854 9.9465Z" fill="white"/>
<path d="M8.93416 13.9535C5.50083 13.9535 3.10083 11.5535 3.10083 8.12012C3.10083 7.84678 3.3275 7.62012 3.60083 7.62012C3.87416 7.62012 4.10083 7.84678 4.10083 8.12012C4.10083 10.9668 6.0875 12.9535 8.93416 12.9535C11.7808 12.9535 13.7675 10.9668 13.7675 8.12012C13.7675 7.84678 13.9942 7.62012 14.2675 7.62012C14.5408 7.62012 14.7675 7.84678 14.7675 8.12012C14.7675 11.5535 12.3675 13.9535 8.93416 13.9535Z" fill="white"/>
</svg>
