<svg width="17" height="16" viewBox="0 0 17 16" fill="none" xmlns="http://www.w3.org/2000/svg">
<path d="M10.6048 4.83342C10.4781 4.83342 10.3514 4.78675 10.2514 4.68675L8.89812 3.33342L7.54478 4.68675C7.35145 4.88008 7.03145 4.88008 6.83812 4.68675C6.64478 4.49342 6.64478 4.17342 6.83812 3.98008L8.54478 2.27342C8.73812 2.08008 9.05812 2.08008 9.25145 2.27342L10.9581 3.98008C11.1514 4.17342 11.1514 4.49342 10.9581 4.68675C10.8581 4.78675 10.7314 4.83342 10.6048 4.83342Z" fill="white"/>
<path d="M8.89795 9.95334C8.62462 9.95334 8.39795 9.72667 8.39795 9.45334V2.67334C8.39795 2.40001 8.62462 2.17334 8.89795 2.17334C9.17128 2.17334 9.39795 2.40001 9.39795 2.67334V9.45334C9.39795 9.73334 9.17128 9.95334 8.89795 9.95334Z" fill="white"/>
<path d="M8.97811 13.8333C5.54478 13.8333 3.14478 11.4333 3.14478 8C3.14478 7.72667 3.37144 7.5 3.64478 7.5C3.91811 7.5 4.14478 7.72667 4.14478 8C4.14478 10.8467 6.13144 12.8333 8.97811 12.8333C11.8248 12.8333 13.8114 10.8467 13.8114 8C13.8114 7.72667 14.0381 7.5 14.3114 7.5C14.5848 7.5 14.8114 7.72667 14.8114 8C14.8114 11.4333 12.4114 13.8333 8.97811 13.8333Z" fill="white"/>
</svg>
